# xmcd CD database file
#
# Track frame offsets:
#	180
#	13831
#	26430
#	41266
#	55293
#	68825
#	82480
#	96964
#	110774
#	121953
#	135681
#	148168
#	160620
#	171977
#	185348
#	196276
#	208340
#	223972
#	237884
#	249803
#
# Disc length: 3490 seconds
#
# Revision: 0
# Processed by: cddbd v1.5.2PL0 Copyright (c) Steve Scherf et al.
# Submitted via: jetAudio 7
#
DISCID=2b0da014
DTITLE=Unknown Artist - The Heart of Blues CD 1
DYEAR=1900
DGENRE=Unknown Genre
TTITLE0=Georgia Rag
TTITLE1=Long tall mama
TTITLE2=49 Highway blues
TTITLE3=Four day worry blues
TTITLE4=Mountains blues
TTITLE5=Roberta part 1
TTITLE6=Providence help
TTITLE7=I m going fishing too
TTITLE8=Mean and no good woman
TTITLE9=Horny frog
TTITLE10=Early in the Morning
TTITLE11=Black gal blues
TTITLE12=Bye bye baby blues
TTITLE13=Good morning litle school girl
TTITLE14=Liqour store blues
TTITLE15=New Love Blues
TTITLE16=Decoration blues
TTITLE17=Brownswille blues
TTITLE18=Concentrating
TTITLE19=Bad luck blues
EXTD=
EXTT0=
EXTT1=
EXTT2=
EXTT3=
EXTT4=
EXTT5=
EXTT6=
EXTT7=
EXTT8=
EXTT9=
EXTT10=
EXTT11=
EXTT12=
EXTT13=
EXTT14=
EXTT15=
EXTT16=
EXTT17=
EXTT18=
EXTT19=
PLAYORDER=
